<svg xmlns="http://www.w3.org/2000/svg" width="780" height="440" viewBox="0 0 780 440" font-family="sans-serif">
<rect width="780" height="440" fill="#0d1117"/>
<text x="390.0" y="24" fill="#e6edf3" font-size="15" text-anchor="middle">Split oscillation delta(18) — PREDICTED (Gaussian) vs MEASURED</text>
<line x1="54" y1="386.0" x2="726" y2="386.0" stroke="#30363d"/>
<line x1="54" y1="54" x2="54" y2="386.0" stroke="#30363d"/>
<text x="54.0" y="402.0" fill="#8b949e" font-size="11" text-anchor="middle">D=4</text>
<text x="186.8" y="402.0" fill="#8b949e" font-size="11" text-anchor="middle">D=21</text>
<text x="319.7" y="402.0" fill="#8b949e" font-size="11" text-anchor="middle">D=38</text>
<text x="452.5" y="402.0" fill="#8b949e" font-size="11" text-anchor="middle">D=55</text>
<text x="585.3" y="402.0" fill="#8b949e" font-size="11" text-anchor="middle">D=72</text>
<text x="726.0" y="402.0" fill="#8b949e" font-size="11" text-anchor="middle">D=90</text>
<text x="48" y="390.0" fill="#8b949e" font-size="10" text-anchor="end">0.0</text>
<text x="48" y="224.0" fill="#8b949e" font-size="10" text-anchor="end">0.1</text>
<text x="48" y="58.0" fill="#8b949e" font-size="10" text-anchor="end">0.3</text>
<polyline points="54.0,177.1 61.8,158.7 69.6,120.0 77.4,151.9 85.3,178.6 93.1,144.2 100.9,150.4 108.7,184.9 116.5,188.6 124.3,178.7 132.1,196.4 140.0,233.7 147.8,267.9 155.6,274.6 163.4,247.8 171.2,218.3 179.0,214.3 186.8,232.4 194.7,255.3 202.5,273.7 210.3,289.4 218.1,303.3 225.9,310.2 233.7,306.5 241.5,296.2 249.3,284.8 257.2,272.2 265.0,254.7 272.8,232.0 280.6,213.0 288.4,211.1 296.2,232.0 304.0,267.3 311.9,300.7 319.7,319.4 327.5,319.6 335.3,305.4 343.1,284.1 350.9,261.7 358.7,241.8 366.6,223.9 374.4,204.3 382.2,179.7 390.0,151.0 397.8,124.5 405.6,108.7 413.4,109.2 421.3,124.8 429.1,148.9 436.9,172.0 444.7,186.5 452.5,188.6 460.3,179.1 468.1,161.3 476.0,139.3 483.8,117.0 491.6,97.2 499.4,82.1 507.2,73.1 515.0,69.8 522.8,71.3 530.7,76.3 538.5,83.9 546.3,94.4 554.1,108.7 561.9,127.7 569.7,151.5 577.5,178.4 585.3,205.1 593.2,227.8 601.0,243.6 608.8,252.0 616.6,254.9 624.4,255.3 632.2,255.8 640.0,257.2 647.9,258.2 655.7,256.9 663.5,251.4 671.3,241.2 679.1,226.8 686.9,209.7 694.7,191.2 702.6,173.0 710.4,155.9 718.2,141.1 726.0,129.3" fill="none" stroke="#f778ba" stroke-width="2.4"/>
<circle cx="54.0" cy="174.4" r="2.6" fill="#58a6ff"/>
<circle cx="61.8" cy="163.8" r="2.6" fill="#58a6ff"/>
<circle cx="69.6" cy="126.6" r="2.6" fill="#58a6ff"/>
<circle cx="77.4" cy="148.6" r="2.6" fill="#58a6ff"/>
<circle cx="85.3" cy="176.5" r="2.6" fill="#58a6ff"/>
<circle cx="93.1" cy="150.1" r="2.6" fill="#58a6ff"/>
<circle cx="100.9" cy="150.4" r="2.6" fill="#58a6ff"/>
<circle cx="108.7" cy="180.7" r="2.6" fill="#58a6ff"/>
<circle cx="116.5" cy="187.5" r="2.6" fill="#58a6ff"/>
<circle cx="124.3" cy="176.5" r="2.6" fill="#58a6ff"/>
<circle cx="132.1" cy="195.6" r="2.6" fill="#58a6ff"/>
<circle cx="140.0" cy="230.2" r="2.6" fill="#58a6ff"/>
<circle cx="147.8" cy="263.6" r="2.6" fill="#58a6ff"/>
<circle cx="155.6" cy="274.1" r="2.6" fill="#58a6ff"/>
<circle cx="163.4" cy="253.4" r="2.6" fill="#58a6ff"/>
<circle cx="171.2" cy="222.0" r="2.6" fill="#58a6ff"/>
<circle cx="179.0" cy="217.3" r="2.6" fill="#58a6ff"/>
<circle cx="186.8" cy="230.5" r="2.6" fill="#58a6ff"/>
<circle cx="194.7" cy="252.5" r="2.6" fill="#58a6ff"/>
<circle cx="202.5" cy="272.0" r="2.6" fill="#58a6ff"/>
<circle cx="210.3" cy="287.9" r="2.6" fill="#58a6ff"/>
<circle cx="218.1" cy="301.0" r="2.6" fill="#58a6ff"/>
<circle cx="225.9" cy="309.7" r="2.6" fill="#58a6ff"/>
<circle cx="233.7" cy="307.9" r="2.6" fill="#58a6ff"/>
<circle cx="241.5" cy="297.0" r="2.6" fill="#58a6ff"/>
<circle cx="249.3" cy="286.3" r="2.6" fill="#58a6ff"/>
<circle cx="257.2" cy="273.6" r="2.6" fill="#58a6ff"/>
<circle cx="265.0" cy="255.9" r="2.6" fill="#58a6ff"/>
<circle cx="272.8" cy="235.3" r="2.6" fill="#58a6ff"/>
<circle cx="280.6" cy="216.5" r="2.6" fill="#58a6ff"/>
<circle cx="288.4" cy="212.1" r="2.6" fill="#58a6ff"/>
<circle cx="296.2" cy="227.0" r="2.6" fill="#58a6ff"/>
<circle cx="304.0" cy="263.7" r="2.6" fill="#58a6ff"/>
<circle cx="311.9" cy="295.8" r="2.6" fill="#58a6ff"/>
<circle cx="319.7" cy="316.8" r="2.6" fill="#58a6ff"/>
<circle cx="327.5" cy="318.9" r="2.6" fill="#58a6ff"/>
<circle cx="335.3" cy="307.7" r="2.6" fill="#58a6ff"/>
<circle cx="343.1" cy="288.1" r="2.6" fill="#58a6ff"/>
<circle cx="350.9" cy="263.8" r="2.6" fill="#58a6ff"/>
<circle cx="358.7" cy="243.0" r="2.6" fill="#58a6ff"/>
<circle cx="366.6" cy="227.8" r="2.6" fill="#58a6ff"/>
<circle cx="374.4" cy="205.5" r="2.6" fill="#58a6ff"/>
<circle cx="382.2" cy="182.5" r="2.6" fill="#58a6ff"/>
<circle cx="390.0" cy="154.7" r="2.6" fill="#58a6ff"/>
<circle cx="397.8" cy="128.2" r="2.6" fill="#58a6ff"/>
<circle cx="405.6" cy="111.8" r="2.6" fill="#58a6ff"/>
<circle cx="413.4" cy="110.4" r="2.6" fill="#58a6ff"/>
<circle cx="421.3" cy="122.0" r="2.6" fill="#58a6ff"/>
<circle cx="429.1" cy="148.5" r="2.6" fill="#58a6ff"/>
<circle cx="436.9" cy="172.4" r="2.6" fill="#58a6ff"/>
<circle cx="444.7" cy="184.6" r="2.6" fill="#58a6ff"/>
<circle cx="452.5" cy="190.7" r="2.6" fill="#58a6ff"/>
<circle cx="460.3" cy="180.2" r="2.6" fill="#58a6ff"/>
<circle cx="468.1" cy="164.9" r="2.6" fill="#58a6ff"/>
<circle cx="476.0" cy="142.0" r="2.6" fill="#58a6ff"/>
<circle cx="483.8" cy="119.1" r="2.6" fill="#58a6ff"/>
<circle cx="491.6" cy="98.7" r="2.6" fill="#58a6ff"/>
<circle cx="499.4" cy="82.8" r="2.6" fill="#58a6ff"/>
<circle cx="507.2" cy="74.4" r="2.6" fill="#58a6ff"/>
<circle cx="515.0" cy="70.4" r="2.6" fill="#58a6ff"/>
<circle cx="522.8" cy="71.4" r="2.6" fill="#58a6ff"/>
<circle cx="530.7" cy="72.8" r="2.6" fill="#58a6ff"/>
<circle cx="538.5" cy="82.3" r="2.6" fill="#58a6ff"/>
<circle cx="546.3" cy="93.5" r="2.6" fill="#58a6ff"/>
<circle cx="554.1" cy="105.1" r="2.6" fill="#58a6ff"/>
<circle cx="561.9" cy="124.6" r="2.6" fill="#58a6ff"/>
<circle cx="569.7" cy="148.4" r="2.6" fill="#58a6ff"/>
<circle cx="577.5" cy="175.0" r="2.6" fill="#58a6ff"/>
<circle cx="585.3" cy="201.2" r="2.6" fill="#58a6ff"/>
<circle cx="593.2" cy="225.5" r="2.6" fill="#58a6ff"/>
<circle cx="601.0" cy="243.3" r="2.6" fill="#58a6ff"/>
<circle cx="608.8" cy="251.3" r="2.6" fill="#58a6ff"/>
<circle cx="616.6" cy="254.8" r="2.6" fill="#58a6ff"/>
<circle cx="624.4" cy="254.8" r="2.6" fill="#58a6ff"/>
<circle cx="632.2" cy="256.5" r="2.6" fill="#58a6ff"/>
<circle cx="640.0" cy="258.1" r="2.6" fill="#58a6ff"/>
<circle cx="647.9" cy="256.7" r="2.6" fill="#58a6ff"/>
<circle cx="655.7" cy="257.9" r="2.6" fill="#58a6ff"/>
<circle cx="663.5" cy="252.5" r="2.6" fill="#58a6ff"/>
<circle cx="671.3" cy="240.6" r="2.6" fill="#58a6ff"/>
<circle cx="679.1" cy="230.4" r="2.6" fill="#58a6ff"/>
<circle cx="686.9" cy="212.8" r="2.6" fill="#58a6ff"/>
<circle cx="694.7" cy="192.8" r="2.6" fill="#58a6ff"/>
<circle cx="702.6" cy="174.9" r="2.6" fill="#58a6ff"/>
<circle cx="710.4" cy="155.6" r="2.6" fill="#58a6ff"/>
<circle cx="718.2" cy="141.8" r="2.6" fill="#58a6ff"/>
<circle cx="726.0" cy="130.2" r="2.6" fill="#58a6ff"/>
<line x1="550" y1="50" x2="570" y2="50" stroke="#f778ba" stroke-width="3"/>
<text x="576" y="54" fill="#e6edf3" font-size="12">predicted (model, no MC)</text>
<circle cx="560" cy="70" r="3" fill="#58a6ff"/>
<text x="576" y="74" fill="#e6edf3" font-size="12">measured (Monte Carlo)</text>
<text x="550" y="92" fill="#8b949e" font-size="11">bridge MAE = 0.0017 (D=4..90, noise ~0.0014)</text>
</svg>
